<svg xmlns="http://www.w3.org/2000/svg" viewBox="0 0 512 512">
  <defs>
    <linearGradient id="bgGradient" x1="0%" y1="0%" x2="100%" y2="100%">
      <stop offset="0%" style="stop-color:#FBB040;stop-opacity:1" />
      <stop offset="100%" style="stop-color:#FF8C00;stop-opacity:1" />
    </linearGradient>
  </defs>
  
  <rect width="512" height="512" rx="90" fill="url(#bgGradient)"/>
  
  <g transform="translate(256, 256)">
    <circle cx="0" cy="-20" r="110" fill="white" opacity="0.95"/>
    
    <path d="M -70,-30 Q -85,-15 -85,0 Q -85,15 -75,25 L -70,20 Q -78,12 -78,0 Q -78,-10 -67,-20 Z" 
          fill="white" opacity="0.95"/>
    <path d="M 70,-30 Q 85,-15 85,0 Q 85,15 75,25 L 70,20 Q 78,12 78,0 Q 78,-10 67,-20 Z" 
          fill="white" opacity="0.95"/>
    
    <circle cx="-35" cy="-30" r="15" fill="#333"/>
    <circle cx="35" cy="-30" r="15" fill="#333"/>
    
    <circle cx="-35" cy="-30" r="6" fill="white"/>
    <circle cx="35" cy="-30" r="6" fill="white"/>
    
    <path d="M -25,5 Q 0,20 25,5" stroke="#FF6B6B" stroke-width="6" fill="none" 
          stroke-linecap="round"/>
    
    <path d="M -110,80 Q -80,100 -40,110 Q 0,115 40,110 Q 80,100 110,80" 
          fill="white" opacity="0.9"/>
    
    <path d="M -90,110 L -95,145 L -75,140 Z" fill="white" opacity="0.85"/>
    <path d="M -50,115 L -50,150 L -30,145 Z" fill="white" opacity="0.85"/>
    <path d="M -10,118 L -5,153 L 15,148 Z" fill="white" opacity="0.85"/>
    <path d="M 30,118 L 35,153 L 55,148 Z" fill="white" opacity="0.85"/>
    <path d="M 70,115 L 75,150 L 95,145 Z" fill="white" opacity="0.85"/>
  </g>
</svg>
