<svg xmlns="http://www.w3.org/2000/svg" viewBox="0 0 512 512">
  <defs>
    <linearGradient id="bgGradient" x1="0%" y1="0%" x2="0%" y2="100%">
      <stop offset="0%" style="stop-color:#5CD5D5;stop-opacity:1" />
      <stop offset="100%" style="stop-color:#2BA5B5;stop-opacity:1" />
    </linearGradient>
  </defs>
  
  <rect width="512" height="512" rx="100" fill="url(#bgGradient)"/>
  
  <g transform="translate(256, 256)" stroke="white" stroke-width="18" fill="none" stroke-linecap="round" stroke-linejoin="round">
    
    <path d="M -140,-30 L -30,-30 M -140,0 L -30,0 M -140,30 L -30,30" />
    
    <rect x="-30" y="-50" width="20" height="100" fill="white" stroke="none"/>
    <rect x="-10" y="-70" width="20" height="140" fill="white" stroke="none"/>
    <rect x="10" y="-50" width="20" height="100" fill="white" stroke="none"/>
    
    <circle cx="100" cy="0" r="80" />
    
    <path d="M 40,0 Q 60,-40 100,-40 Q 140,-40 160,0" />
    
    <path d="M 100,-40 L 100,40" />
    
    <circle cx="100" cy="50" r="12" fill="white" stroke="none"/>
    
    <path d="M 80,60 Q 100,80 120,60" />
    
    <path d="M 60,0 L 100,0" />
  </g>
</svg>